HIERARCHY
ROOT HipCenter
{
    OFFSET 0.0 0.0 -0.0
    CHANNELS 6 Xposition Yposition Zposition Zrotation Xrotation Yrotation
    JOINT Spine
    {
        OFFSET 0.0 12.03535270690918 0.0
        CHANNELS 3 Zrotation Xrotation Yrotation
        JOINT ShoulderCenter
        {
            OFFSET 0.0 31.613771438598633 0.0
            CHANNELS 3 Zrotation Xrotation Yrotation
            JOINT LeftShoulder
            {
                OFFSET 16.985023498535156 0.0 0.0
                CHANNELS 3 Zrotation Xrotation Yrotation
                JOINT LeftElbow
                {
                    OFFSET 30.426177978515625 0.0 0.0
                    CHANNELS 3 Zrotation Xrotation Yrotation
                    JOINT LeftWrist
                    {
                        OFFSET 26.315349578857422 0.0 0.0
                        CHANNELS 3 Zrotation Xrotation Yrotation
                        JOINT LeftHand
                        {
                            OFFSET 2.5929903984069824 0.0 0.0
                            CHANNELS 3 Zrotation Xrotation Yrotation
                            End Site
                            {
                                OFFSET 1.037196159362793 0.0 0.0
                            }
                        }
                    }
                }
            }
            JOINT RightShoulder
            {
                OFFSET -16.985023498535156 0.0 0.0
                CHANNELS 3 Zrotation Xrotation Yrotation
                JOINT RightElbow
                {
                    OFFSET -30.426177978515625 0.0 0.0
                    CHANNELS 3 Zrotation Xrotation Yrotation
                    JOINT RightWrist
                    {
                        OFFSET -26.315349578857422 0.0 0.0
                        CHANNELS 3 Zrotation Xrotation Yrotation
                        JOINT RightHand
                        {
                            OFFSET -2.5929903984069824 0.0 0.0
                            CHANNELS 3 Zrotation Xrotation Yrotation
                            End Site
                            {
                                OFFSET -1.037196159362793 0.0 0.0
                            }
                        }
                    }
                }
            }
            End Site
            {
                OFFSET 0.0 12.645508766174316 0.0
            }
        }
    }
    JOINT LeftHip
    {
        OFFSET 16.763757705688477 0.0 0.0
        CHANNELS 3 Zrotation Xrotation Yrotation
        JOINT LeftKnee
        {
            OFFSET 0.0 -34.998138427734375 0.0
            CHANNELS 3 Zrotation Xrotation Yrotation
            JOINT LeftAnkle
            {
                OFFSET 0.0 -41.17591857910156 0.0
                CHANNELS 3 Zrotation Xrotation Yrotation
                JOINT LeftFoot
                {
                    OFFSET 0.0 -12.276433944702148 0.0
                    CHANNELS 3 Zrotation Xrotation Yrotation
                    End Site
                    {
                        OFFSET 0.0 0.0 4.9105730056762695
                    }
                }
            }
        }
    }
    JOINT RightHip
    {
        OFFSET -16.763757705688477 0.0 0.0
        CHANNELS 3 Zrotation Xrotation Yrotation
        JOINT RightKnee
        {
            OFFSET 0.0 -34.998138427734375 0.0
            CHANNELS 3 Zrotation Xrotation Yrotation
            JOINT RightAnkle
            {
                OFFSET 0.0 -41.17591857910156 0.0
                CHANNELS 3 Zrotation Xrotation Yrotation
                JOINT RightFoot
                {
                    OFFSET 0.0 -12.276433944702148 0.0
                    CHANNELS 3 Zrotation Xrotation Yrotation
                    End Site
                    {
                        OFFSET 0.0 0.0 4.9105730056762695
                    }
                }
            }
        }
    }
}
MOTION
Frames: 8
Frame Time: 0.03333333333333333
54.5 -11.90000057220459 33.19999694824219 -7.657701892405349 -5.234378444888029 -14.145621171924097 5.289387100724657 4.461602345605508 -0.18893802705049165 2.5531338813844788e-08 1.2652882094696607e-07 -7.548092003006716 126.63556109733099 -27.348129031674866 -136.9282650304127 6.667372689638056e-07 6.259064596644286e-06 136.3190377971596 -179.99999829432087 -66.71439017765562 -135.7977954937635 1.5902773407317584e-15 -3.975693351829397e-16 -4.770832022195275e-15 -109.17823023262049 -12.402014279906366 -167.4269977704033 1.2678103029452577e-06 -1.0754384469230502e-06 -123.97679452423726 1.2480609099949481e-06 -36.78097737293697 -34.63667077504178 1.3241718894150476e-31 3.1805546814635164e-15 -4.770832022195274e-15 0.9639848536774325 8.93275146183107 -20.729872215227566 -4.269790109260491 22.131459944969265 -10.715212429453693 81.93024307623564 -54.280589140079165 110.04242905019208 -5.517382872562698e-33 -3.9756933518293955e-16 -1.5902773407317582e-15 14.850627679872932 -11.679817824988866 8.796329917966181 -7.42453018268395 39.201080396329196 23.832945876992554 -86.54921848656795 -70.82455379772534 -114.09980490073205 0.0 0.0 0.0
54.29999923706055 -11.800000190734863 33.29999923706055 -7.657719990259412 -5.707232768552031 -14.352438141736076 5.202412829000708 4.761575434432973 -0.22415817025160148 -3.4955652878470853e-08 -1.0688003002403921e-07 -7.696036036496733 127.01381383850068 -27.57096232014879 -136.73518041824198 -3.001077450917108e-06 -5.13523374505192e-06 136.4355520431264 -179.99999509169723 -66.94932351861321 -135.12779545462678 -5.168401357378214e-15 1.0758896601497261e-31 -2.385416011097637e-15 -108.77449529033406 -11.947109008371562 -166.86871354757483 -4.3968104305055506e-07 3.1641633820775248e-06 -123.7964144256484 8.44398502930431e-07 -41.763671032016106 -35.4042205112833 0.0 0.0 0.0 0.9949638559820287 9.430194519960702 -20.51721902893611 -4.183844218320496 22.25492891145195 -11.135121834899815 82.16966828761218 -54.0317359331625 111.2069712259871 0.0 -6.3611093629270335e-15 0.0 14.500353367998304 -10.881258990524348 8.315913662506837 -7.018010079308021 38.46469297881137 23.015269288852668 -85.3724078059624 -72.781697698563 -112.48980783552629 1.5902773407317584e-15 -6.3611093629270335e-15 1.5902773407317584e-15
54.10000228881836 -11.699999809265137 33.29999923706055 -8.13010643327331 -5.228450365452714 -14.777945572749587 5.876964134443794 3.929696969107634 -0.21005646043344914 1.0706909217104085e-07 6.179385786027324e-08 -7.34077668465293 127.05550456766582 -28.088551765010628 -136.706297371002 7.750923596268119e-07 -5.394751168977541e-06 136.39864219611178 -179.99999556322717 -68.439032023271 -136.57031370393497 -5.963540027744094e-16 -1.4483130040477084e-32 2.782985346280577e-15 -108.61475931403885 -11.394276485145376 -166.28754726591882 3.933707592588525e-06 3.840938747356899e-06 -124.05785077381971 7.2713745533498855e-06 -37.77521581827624 -34.290619723069874 -1.3241718894150476e-31 -3.180554681463516e-15 -4.7708320221952736e-15 1.4217053712092258 9.417534431090006 -20.605259723730992 -3.939837036287609 22.11023675960811 -11.161706516961138 81.6415727444063 -53.57481887779245 110.94567896759952 5.517382872562698e-33 3.975693351829396e-16 -1.5902773407317584e-15 14.81449920149227 -11.053426152566331 8.407328703623067 -6.329326882457834 37.93207271731367 22.409853947131335 -85.02961627246474 -73.8478902196147 -111.88141234596371 1.5902773407317588e-15 -8.827812596100317e-32 -6.361109362927035e-15
54.000003814697266 -11.59999942779541 33.39999771118164 -8.19803642874288 -5.2716004822108165 -15.236654348943501 5.818321779185511 3.6523097361801953 -0.2062057377541095 -2.9910118317006292e-09 1.888901382298164e-09 -6.98414780409682 127.22381999595893 -28.2331991006457 -136.83529618935725 3.011987147892342e-06 -4.266123694495414e-07 136.57206233230318 179.99999723956742 -68.23632224070074 -136.18791878216484 -3.3793393490549868e-15 3.1805546814635168e-15 1.192708005548819e-15 -108.45320373659987 -11.431461109301498 -166.153827911239 1.3927001505381274e-06 9.480452519185235e-07 -124.28085461407488 2.9607538374838966e-06 -37.97638193689112 -33.824762153342064 0.0 0.0 0.0 1.5368404454824112 10.231339815050864 -20.867340810816025 -3.860586393313502 21.06733888504214 -10.838265338437802 81.19244977376374 -52.783264252916176 111.25511325211411 0.0 6.361109362927035e-15 0.0 14.63686335352835 -10.964216674763097 8.02601387238118 -6.054773428871745 37.76675228882323 22.188621172778134 -86.50188507677939 -74.27557639930102 -113.27185828917085 1.5902773407317584e-15 3.975693351829396e-16 -1.5902773407317584e-15
53.89999771118164 -11.59999942779541 33.5 -8.130105564637296 -5.700755770717995 -15.543185216724439 5.710907602679846 3.7181555135565305 -0.203344350897877 1.2704051650843125e-08 2.1611279562643242e-07 -6.678722866554221 127.00045403988996 -28.319390145759588 -136.81052435011537 -2.0649995351410966e-07 -5.587054860929858e-07 136.58295409256957 -179.99998541142872 -69.22918652734096 -138.02208229099364 -7.156248033292912e-15 2.385416011097637e-15 7.951386703658792e-16 -108.15900745370742 -11.621466324546669 -166.09084732821447 -3.878805736583478e-08 -2.5583922871361407e-06 -124.58306946575019 -3.5716332616650865e-06 -37.05575492189649 -36.02989194768619 0.0 0.0 1.5902773407317584e-15 1.4499772666197526 11.37171507124622 -21.03532340141114 -3.7156607620901903 19.86206812900323 -10.152431294542104 80.35058480986224 -53.501748597394005 110.06145960099589 0.0 0.0 3.1805546814635168e-15 13.988216714764315 -10.483762793922162 7.768496081348584 -5.473712656281929 37.54907288149204 22.066233928090394 -87.42540515915877 -75.11279750662864 -114.19437077401057 1.5902773407317584e-15 2.2069531490250793e-32 1.5902773407317584e-15
53.89999771118164 -11.5 33.39999771118164 -7.657720833202212 -5.2343790597104265 -15.206885626854065 5.311279971242414 2.7250953664479645 -0.1436293561389419 4.052405389630657e-08 6.055370945414904e-08 -6.832982856074347 126.934130551085 -28.365286978118743 -136.93845171754924 -1.7483722838543077e-06 -5.233221929267258e-06 136.6529448190934 -179.99999127264633 -71.63663120098643 -136.6168123018493 2.782985346280577e-15 -1.9310840053969443e-31 -7.951386703658792e-15 -108.02112857128813 -12.008468402230411 -166.25106293957685 1.476276342764248e-07 3.862324914003944e-06 -124.866007726021 7.5007705367951845e-06 -38.04210323786289 -35.55354335054073 0.0 0.0 0.0 1.3090791563825004 10.98549443773883 -21.48482259857015 -3.843394441554036 19.438723537911372 -9.917406104426492 80.47325493327071 -53.4912884342189 110.21421252316364 -3.1805546814635176e-15 -4.4139062980501586e-32 1.5902773407317588e-15 13.452492480096536 -11.103456937923387 8.022348280796566 -4.621263106124851 37.59118873224602 21.53032647773512 -88.04246660052344 -74.90045029968688 -114.27538846801744 1.5902773407317584e-15 -3.975693351829396e-16 -1.5902773407317584e-15
53.79999923706055 -11.399999618530273 33.39999771118164 -8.198072533634571 -5.271599901160878 -15.209091362117736 5.73973518836369 2.504042501957564 -0.14752405358523848 -1.0027239872347818e-07 -1.3069223017175597e-07 -6.690244398659486 127.04136406831573 -28.738146278381887 -136.79074396523032 2.704658986305609e-06 2.3485924997303883e-06 136.61617311080568 179.99999514447993 -71.40961264987271 -136.38720382618428 2.782985346280577e-15 2.3854160110976376e-15 1.5902773407317584e-15 -107.58032455443863 -12.119823743790308 -166.54798893811702 -4.489305463914544e-06 -4.928496595032891e-06 -125.11338424325402 -9.700310850301515e-06 -38.69138722667742 -34.75631681315851 1.2722218725854067e-14 -3.531125038440127e-31 -3.1805546814635168e-15 1.8588613994590046 11.011017219586344 -21.17084085198592 -3.6531061745110134 19.625656981179734 -10.39879962638219 81.1229762675837 -53.50259666808958 111.97323647462325 0.0 0.0 -1.5902773407317582e-15 13.730053521491657 -10.788806841273294 7.620952724025582 -4.411816183584794 37.14766157889884 21.229422708779218 -88.51825547797534 -75.87085835859325 -114.7261773011572 8.827812596100317e-32 -6.361109362927033e-15 1.5902773407317582e-15
53.79999923706055 -11.399999618530273 33.39999771118164 -8.130105433312654 -5.228432219954691 -15.200446649364745 5.728290823594523 2.2555933097692416 -0.13457389658527985 -1.4957200189996826e-08 3.899889782541338e-07 -6.35918204924375 127.17359227182658 -28.636314230404636 -136.61316013408626 4.67506543781241e-07 1.7535135072832927e-06 136.7383089904049 179.9999985485731 -72.14402298179427 -136.70179936287695 4.770832022195275e-15 0.0 0.0 -107.55125652217366 -12.226502655853059 -167.0378776760618 1.915168951242083e-06 -4.975049331896924e-06 -124.67757818091226 -3.945429823703706e-06 -36.52593919756935 -34.88294157038518 6.3611093629270335e-15 -1.7655625192200634e-31 -3.1805546814635168e-15 1.8049738238424615 10.951555077644677 -20.850234838217396 -3.4525091832240316 19.544453555160825 -10.49761181093748 80.45814665890732 -53.827631952185314 111.48454388569225 0.0 0.0 0.0 13.715982144763593 -10.992979713200654 7.1909971969481274 -4.778561059179406 37.26064689725542 21.450831675183917 -88.48078467372406 -76.22631121663247 -114.78641065761249 0.0 0.0 1.5902773407317584e-15
